<svg xmlns="http://www.w3.org/2000/svg" width="60" height="60" viewBox="0 0 60 60"><g transform="translate(-897 -281.438)"><path d="M-46-56h21.651a32.14,32.14,0,0,0-5.466,5.466l.052.258a24.94,24.94,0,0,1,6.373-5.86A24.94,24.94,0,0,1-29.763-62l-.052.258a32.14,32.14,0,0,0,5.466,5.466H-46Z" transform="translate(961.841 367.263)" fill="#655d4d"/><circle cx="30" cy="30" r="30" transform="translate(897 281.438)" fill="rgba(255,255,255,0)"/><path d="M30,.5A29.508,29.508,0,0,0,18.517,57.182,29.508,29.508,0,0,0,41.483,2.818,29.315,29.315,0,0,0,30,.5M30,0A30,30,0,1,1,0,30,30,30,0,0,1,30,0Z" transform="translate(897 281.438)" fill="#655d4d"/></g></svg>