<svg xmlns="http://www.w3.org/2000/svg" width="315" height="54" viewBox="0 0 315 54"><defs><style>.a{fill:#655d4d;}.b{fill:none;}</style></defs><g transform="translate(-483 -195)"><path class="a" d="M-157.02-43.08q-.12-.3.93-.66t1.17-.06L-139.8,9.12q.12.24-.96.57t-1.2.09ZM-120-18.24a35.047,35.047,0,0,1,3.24-15.3,21.544,21.544,0,0,1,9-9.96q.12-.06.24.09a.182.182,0,0,1,0,.27A25.308,25.308,0,0,0-114.3-32.7a43.836,43.836,0,0,0-2.16,14.46A43.836,43.836,0,0,0-114.3-3.78a25.308,25.308,0,0,0,6.78,10.44q.12.06,0,.24t-.24.12a21.652,21.652,0,0,1-9.03-9.99A35.126,35.126,0,0,1-120-18.24Zm90.48-4.5q0,.12-.24.24t-.3,0l-7.68-10.92L-45.42-22.5a.244.244,0,0,1-.18.06.521.521,0,0,1-.3-.15q-.18-.15-.12-.21l7.62-14.94q.06-.3.66-.3t.66.3l7.56,14.94ZM-9.9,4.5q-.12,0-.21-.39a3.591,3.591,0,0,1-.09-.81,2.855,2.855,0,0,1,.09-.75q.09-.33.15-.33H9.9q.12,0,.21.36a3.21,3.21,0,0,1,.09.78,3.21,3.21,0,0,1-.09.78q-.09.36-.21.36ZM45.96-22.74q0,.12-.24.24t-.3,0L37.74-33.42,30.06-22.5a.244.244,0,0,1-.18.06.521.521,0,0,1-.3-.15q-.18-.15-.12-.21l7.62-14.94q.06-.3.66-.3t.66.3L45.96-22.8ZM120-18.24a35.047,35.047,0,0,1-3.24,15.3,21.544,21.544,0,0,1-9,9.96q-.12.06-.24-.09a.182.182,0,0,1,0-.27A25.308,25.308,0,0,0,114.3-3.78a43.836,43.836,0,0,0,2.16-14.46A43.836,43.836,0,0,0,114.3-32.7a25.308,25.308,0,0,0-6.78-10.44q-.12-.06,0-.24t.24-.12a21.652,21.652,0,0,1,9.03,9.99A35.126,35.126,0,0,1,120-18.24ZM141.96,9.78q-.06.24-1.14-.09t-1.02-.57L154.92-43.8q.12-.3,1.17.06t.93.66Z" transform="translate(640.032 239)"/><rect class="b" width="315" height="54" transform="translate(483 195)"/></g></svg>